<?xml version="1.0" encoding="UTF-8"?>
<!--
  Inheribase — Sovereign Anchor Logo Mark (Standard)
  Vault: Metallic Gold #D4AF37 | Profile: Dark Space Black #0D0D0D
  Generated: 2026-04-10 | Brand Guardian Approved
-->
<svg xmlns="http://www.w3.org/2000/svg" viewBox="0 0 20312 18925" role="img" aria-label="Inheribase logo">
  <!-- Vault (The Gold Container) -->
  <rect width="20312" height="18925" fill="#D4AF37"/>
  <!-- Profile (Concealed within the vault) -->
  <path d="M6527 10688C6553 10749 6579 10810 6606 10901C6767 11448 6743 11994 6622 12548C6511 13053 6277 13509 6036 13992C5775 14456 5514 14920 5243 15401C7031 15401 8789 15401 10557 15401C10557 15254 10528 15108 10563 14977C10654 14638 10773 14306 10891 13946C10987 13714 11080 13482 11177 13251C11323 12904 11444 12828 11847 12837C11979 12840 12111 12857 12242 12867C12587 12894 12931 12939 13276 12944C13779 12952 14020 12496 13897 12162C13798 11893 13772 11613 14100 11420C14234 11342 14195 11218 14096 11092C14099 11064 14089 11022 14105 11011C14375 10820 14379 10805 14217 10513C14192 10398 14168 10282 14169 10160C14260 10124 14350 10084 14443 10055C14579 10011 14724 9987 14853 9932C15009 9864 15076 9696 14988 9579C14794 9320 14582 9073 14372 8796C14196 8512 14019 8228 13846 7915C13876 7767 13916 7619 13934 7470C13961 7253 13972 7034 13994 6786C13980 6737 13965 6688 13950 6638C13845 6286 13739 5934 13628 5558C13415 5270 13234 4955 12982 4700C12420 4130 11666 3861 10884 3684C9530 3379 8224 3499 7026 4208C6473 4535 6026 4970 5713 5545C5645 5694 5576 5844 5489 6013C5282 6546 5214 7097 5254 7690C5288 7881 5322 8072 5356 8292C5471 8770 5684 9210 5961 9649C6148 9987 6334 10325 6527 10688Z" fill="#0D0D0D"/>
</svg>
